<svg height="512pt" viewBox="0 0 512 512" width="512pt" xmlns="http://www.w3.org/2000/svg" xmlns:xlink="http://www.w3.org/1999/xlink"><linearGradient id="a"><stop offset="0" stop-color="#e93e3a"/><stop offset=".354" stop-color="#ed683c"/><stop offset=".705" stop-color="#f3903f"/><stop offset="1" stop-color="#fdc70c"/></linearGradient><linearGradient id="b" gradientTransform="matrix(.670906 0 0 -.670906 0 495.66887)" gradientUnits="userSpaceOnUse" x1="-5.1989" x2="918.9478" xlink:href="#a" y1="357.2318" y2="357.2318"/><linearGradient id="c" gradientTransform="matrix(.670906 0 0 -.670906 0 495.66887)" gradientUnits="userSpaceOnUse" x1="-5.1989" x2="918.9478" xlink:href="#a" y1="346.0076" y2="346.0076"/><path d="m256 512c-141.386719 0-256-114.617188-256-256 0-141.386719 114.613281-256 256-256 141.382812 0 256 114.613281 256 256-.167969 141.316406-114.683594 255.832031-256 256zm0-480c-123.710938 0-224 100.289062-224 224s100.289062 224 224 224 224-100.289062 224-224c-.132812-123.65625-100.34375-223.867188-224-224zm0 0" fill="url(#b)"/><path d="m176 384c-4.242188 0-8.3125-1.6875-11.3125-4.6875l-64-64c-6.136719-6.355469-5.960938-16.484375.394531-22.625 6.199219-5.988281 16.03125-5.988281 22.230469 0l52.6875 52.6875 197.824219-197.824219c6.355469-6.136719 16.484375-5.960937 22.625.394531 5.988281 6.199219 5.988281 16.03125 0 22.230469l-209.136719 209.136719c-3 3-7.070312 4.6875-11.3125 4.6875zm0 0" fill="url(#c)"/></svg>